PathFileType	4	(X/Y/Z)	C:\Users\Biomechanik\SynologyDrive\AlexP\Athlete_03\Athlete_3_25_03_31\Walking_04\marker_experimental.trc
DataRate	CameraRate	NumFrames	NumMarkers	Units	OrigDataRate	OrigDataStartFrame	OrigNumFrames
200.000000	200.000000	4	53	mm	200.000000	173	463
Frame#	Time	GLAB			RFHD			LFHD			C7			T6			SPINMOL			SPINM2			SPINM3			T12			BELTOL			BELT2			BELT3			SACROL			SACR2			SACR3			LTHOL			LTH2			LTH3			LSHAOL			LSHA2			LSHA3			LHEE			LTOE			LM5			RTH2			RSHAOL			RSHA2			RSHA3			RHEE			RTOE			RM5			STRN			XIPH			LACR			LUAOL			LUA2			LUA3			LLAOL			LLA2			LLA3			LWRR			LWRU			RACR			RUAOL			RUA2			RUA3			RLAOL			RLA2			RLA3			RWRR			RWRU			RTH3			RTHOL			
		X1	Y1	Z1	X2	Y2	Z2	X3	Y3	Z3	X4	Y4	Z4	X5	Y5	Z5	X6	Y6	Z6	X7	Y7	Z7	X8	Y8	Z8	X9	Y9	Z9	X10	Y10	Z10	X11	Y11	Z11	X12	Y12	Z12	X13	Y13	Z13	X14	Y14	Z14	X15	Y15	Z15	X16	Y16	Z16	X17	Y17	Z17	X18	Y18	Z18	X19	Y19	Z19	X20	Y20	Z20	X21	Y21	Z21	X22	Y22	Z22	X23	Y23	Z23	X24	Y24	Z24	X25	Y25	Z25	X26	Y26	Z26	X27	Y27	Z27	X28	Y28	Z28	X29	Y29	Z29	X30	Y30	Z30	X31	Y31	Z31	X32	Y32	Z32	X33	Y33	Z33	X34	Y34	Z34	X35	Y35	Z35	X36	Y36	Z36	X37	Y37	Z37	X38	Y38	Z38	X39	Y39	Z39	X40	Y40	Z40	X41	Y41	Z41	X42	Y42	Z42	X43	Y43	Z43	X44	Y44	Z44	X45	Y45	Z45	X46	Y46	Z46	X47	Y47	Z47	X48	Y48	Z48	X49	Y49	Z49	X50	Y50	Z50	X51	Y51	Z51	X52	Y52	Z52	X53	Y53	Z53	

174	0.865	428.3306884765623	1607.553344726562	216.2666931152345	376.4923095703123	1635.517822265625	278.6946105957032	386.9290161132811	1626.994506835938	140.8488006591798	206.0574188232421	1443.171752929688	207.3683319091797	152.2250061035155	1272.518920898438	206.684310913086	145.8208770751952	1232.107177734375	186.0904388427735	138.8968811035155	1225.171264648438	235.5534362792969	151.3438873291014	1168.341796875	203.0634918212891	177.3456726074218	1103.833740234375	206.7906341552735	141.4311981201171	1069.674926757812	190.5223999023438	139.8364410400389	1067.515258789062	240.9965057373047	136.796157836914	1007.401550292969	211.8016357421875	154.2416992187499	957.7763671875	195.7942199707032	154.8030700683593	956.826416015625	247.8157958984375	142.690216064453	896.9481811523438	220.4624938964844	269.1008605957031	673.5573120117188	45.81624984741216	222.4375762939453	616.224365234375	74.83457183837895	270.8927001953124	614.4275512695312	62.60796737670903	267.5138854980469	318.5877075195312	70.95459747314457	217.6560516357421	257.6338806152344	83.69721984863286	267.6786499023438	257.3158569335938	80.57109069824223	191.3090362548828	68.89537811279298	177.6004943847657	409.3274536132812	44.82096862792972	176.4911041259766	361.9812927246094	30.93577575683596	74.98638916015632	374.2223205566405	650.0542602539062	443.0629882812501	286.7534179687499	417.4432373046875	421.1199645996094	272.0376281738281	340.2067260742188	413.6431579589844	243.6193389892577	378.1449279785156	399.1553955078126	101.1509628295898	235.2516784667969	268.9304504394531	248.5716400146484	85.47872161865236	301.6020812988282	186.5509033203124	107.2212066650391	391.9258728027344	375.9654235839843	1344.816650390625	217.015365600586	396.1128540039061	1201.318725585938	221.4833221435548	290.2884216308593	1401.922485351562	36.77593231201178	295.5806274414062	1246.286376953125	-63.32822036743158	287.7337951660156	1183.89501953125	-83.51074981689447	331.9971923828124	1191.522094726562	-58.70178985595697	354.3198547363281	987.70263671875	-105.9511795043945	331.1153564453124	914.051025390625	-90.53315734863276	376.7357788085937	930.56787109375	-102.0639343261718	423.5854492187499	837.7506713867188	-98.01190185546868	460.2958374023437	854.175537109375	-29.40500259399406	282.2479553222655	1404.369750976562	381.5176086425782	257.8853454589842	1258.058959960938	482.0213012695313	281.164825439453	1196.734741210938	492.5683288574219	231.0302276611326	1201.354125976562	502.6717529296876	267.3247985839842	983.5106811523438	543.58349609375	324.1664123535155	937.3593139648438	575.7221069335939	284.4714355468748	922.6661987304688	549.4286499023438	328.5373229980467	846.2301025390625	569.3616333007814	371.0629882812498	832.142822265625	500.6144409179688	334.6445007324218	628.065185546875	422.1594238281251	304.3375244140624	681.908447265625	423.4891662597657	
175	0.87	434.8001098632811	1607.724487304688	216.4073181152345	382.9750061035155	1635.5849609375	278.8851623535157	393.3778991699218	1627.331176757812	141.0267791748048	212.5328674316405	1443.495483398438	207.2695007324219	158.5462036132811	1272.865234375	206.4727020263672	152.0579071044921	1232.434448242188	185.8944702148438	144.1298370361327	1226.0771484375	235.8572845458985	157.5755004882811	1168.70849609375	202.8460235595703	183.6153717041015	1104.143188476562	206.6117706298828	147.3565368652343	1069.900512695312	190.5777130126953	146.0288848876952	1067.762939453125	241.0929870605469	142.8721160888671	1007.663208007812	211.9692535400391	160.2490844726562	957.879638671875	195.9260406494141	161.0814971923827	957.1107177734375	247.947021484375	148.8688812255859	897.0991821289062	220.7913360595703	272.3871154785156	674.0269165039062	46.3931388854981	225.4080200195312	617.1171264648438	75.48482513427739	273.7183532714843	614.81591796875	62.75463867187505	268.6281433105469	318.7759704589844	71.11531829833989	218.3575286865234	258.1715393066406	83.34082794189457	268.5360107421875	257.4783935546875	80.76286315917973	191.650634765625	69.17580413818361	177.7035217285157	409.7556762695312	44.56131362915042	176.9226684570313	361.9118347167969	31.03754806518557	75.12801361083991	383.5411376953124	651.271728515625	442.4472961425782	299.2190246582031	415.0829467773438	420.5637512207032	286.5774230957031	337.5923767089844	412.5153198242188	256.7883605957031	374.9725036621094	398.9042663574219	116.9603958129882	228.4512786865234	268.6967163085938	270.5868835449218	83.55004882812501	301.6861572265626	207.2147674560546	103.3997039794922	391.7916259765626	382.2602539062499	1345.051025390625	216.832748413086	402.286407470703	1201.51318359375	221.0056610107423	296.612579345703	1402.40478515625	36.6516952514649	302.3504028320312	1246.93798828125	-63.42818450927729	295.0250244140624	1184.66796875	-84.10673522949213	339.1802368164062	1192.412353515625	-59.00403976440423	363.8414306640624	988.9217529296875	-106.2220077514648	341.7695007324218	914.953125	-90.60578918457026	387.1817016601562	932.2389526367188	-102.3820343017577	435.5482788085937	840.2275390625	-97.62450408935538	471.8484191894531	857.4420166015625	-28.99800300598136	288.6670837402342	1404.57958984375	381.3583984375001	263.4593811035155	1258.261352539062	482.0147094726563	286.2870483398436	1196.555297851562	492.6490173339844	236.1757049560545	1201.821655273438	502.4423217773438	271.1586303710936	983.808349609375	543.534423828125	327.3422546386717	937.2213745117188	576.4256591796876	287.8978576660155	922.8385009765625	549.7557373046875	331.1690979003905	846.2484741210938	570.1263427734376	373.9532165527342	831.603271484375	501.7093200683594	344.2681274414061	628.8011474609375	421.8266296386719	313.2682495117186	682.5139770507812	423.4689331054688	
176	0.875	441.2281188964842	1607.843139648438	216.6256866455079	389.4631958007811	1635.616577148438	279.1256713867188	399.8423461914061	1627.595336914062	141.2767181396485	218.9732818603514	1443.768798828125	207.2118072509766	164.8440399169921	1273.165649414062	206.3325653076172	158.3251953124999	1232.775268554688	185.6716461181641	150.4200286865233	1226.373168945312	235.6517639160157	163.9261474609374	1168.957153320312	202.5845184326172	189.8444519042968	1104.363525390625	206.3729553222657	153.3395385742187	1070.068725585938	190.7335815429688	152.1607666015624	1068.028930664062	241.2296142578125	148.792755126953	1007.9072265625	212.1721343994141	166.1722106933593	958.0404663085938	196.0866088867188	167.3567047119139	957.2762451171875	248.1211853027344	154.934829711914	897.2698364257812	221.1052551269532	275.5336608886718	674.2779541015625	45.88807296752935	228.1992492675781	618.2549438476562	75.82695770263676	276.4955139160156	615.2054443359375	62.88869094848638	269.8620910644531	318.9787292480469	71.29572296142582	219.2524871826171	258.5560302734375	83.08137512207036	269.4527282714844	257.6954650878906	80.92849731445317	191.7974853515625	69.33180236816408	178.0066070556641	409.6653137207031	44.76100158691409	176.6607818603516	362.0751953125	30.99133872985842	75.1253738403321	392.9396057128905	652.6580810546875	441.5655822753907	311.6365661621093	412.8172607421875	420.0666503906251	301.1018676757812	335.0998229980469	411.4728393554688	270.0329284667968	371.6617736816406	398.6215820312501	133.3316345214843	221.2603912353516	268.5179443359375	291.4318237304687	82.08126068115236	301.5147094726563	228.4752044677734	99.65892791748048	391.7393798828126	388.5792236328124	1345.1806640625	216.6335601806641	408.5824279785155	1201.626220703125	220.637191772461	302.8966064453124	1402.822509765625	36.60015487670904	309.3946838378906	1247.6640625	-63.89068222045893	302.1817626953124	1185.241333007812	-84.11662292480463	346.3943481445312	1193.267333984375	-59.3703536987304	373.4853820800781	989.9677734375	-106.361701965332	352.3512268066406	915.6360473632812	-90.86836242675774	397.4831848144531	933.8662109375	-102.1366577148437	447.3673400878906	842.8264770507812	-97.11471557617179	483.3355407714843	860.8150024414062	-28.56748962402335	295.1539306640623	1404.574340820312	381.2242736816407	269.1915588378905	1258.363403320312	481.9106750488282	291.7652893066405	1196.591064453125	492.6671752929688	241.4842224121092	1202.127685546875	502.2336425781251	274.9793701171873	984.0728149414062	543.97314453125	330.5585021972655	937.1400146484375	577.1511840820314	291.2289428710936	922.8933715820312	550.2965698242188	333.8363037109373	846.123291015625	570.9127197265626	376.9408264160155	831.2079467773438	502.6187744140626	353.8220825195311	629.7516479492188	421.3825073242188	322.1087341308593	683.1248168945312	423.4481811523438	
177	0.88	447.7322692871092	1607.910888671875	216.7904510498048	396.031524658203	1635.483154296875	279.2573547363282	406.3787841796874	1627.814453125	141.4811096191407	225.439727783203	1443.998657226562	207.1351470947266	171.1296386718749	1273.436889648438	206.1739959716797	164.5639190673827	1232.988525390625	185.4965209960938	156.7884063720702	1226.606689453125	235.466552734375	170.0902557373046	1169.215087890625	202.4467315673828	195.9877624511718	1104.580932617188	206.2217254638672	159.3290710449218	1070.146850585938	190.9009552001953	158.2704772949218	1067.953979492188	241.2908935546875	154.8536224365234	1007.930969238281	212.4590759277344	172.0756225585937	958.133056640625	196.34228515625	173.5653991699218	957.400390625	248.3349761962891	161.0265655517577	897.41455078125	221.4129791259766	278.7937927246093	674.6409301757812	45.93479156494146	231.2696685791015	619.0743408203125	76.43775939941411	279.3688964843749	615.5538330078125	62.97608566284185	271.0564575195312	319.16796875	71.51933288574224	220.1919250488281	258.8773803710938	82.89219665527348	270.4268493652344	257.8773193359375	81.10212707519536	191.9176483154297	69.50144195556642	178.3256988525391	409.7388916015624	44.714225769043	176.7075347900391	361.9994506835938	31.0847797393799	75.28010559082038	402.2755432128905	654.1526489257812	440.4832458496094	324.0021972656249	410.4081115722656	419.6656494140626	315.6325073242187	332.5212707519531	410.5346679687501	283.3519592285156	368.2299194335938	398.2958679199219	149.7654724121093	214.0211486816406	268.4585571289062	312.2868652343749	80.40957641601564	301.5778503417969	249.0056915283202	95.87965393066408	391.6093750000001	394.9097595214843	1345.2529296875	216.460678100586	414.7981872558593	1201.63671875	220.2597808837891	309.2262268066405	1403.202514648438	36.53408432006842	316.1938476562499	1248.171508789062	-63.98911285400385	308.3719787597656	1185.834594726562	-82.27709960937494	353.7584838867187	1194.032958984375	-60.14497375488275	382.7895202636718	991.3030395507812	-106.7914276123046	362.9956359863281	916.5995483398438	-90.64519500732415	407.8510131835937	935.4562377929688	-102.1678237915038	459.1733703613281	845.263916015625	-96.6475296020507	494.7461547851562	864.1616821289062	-28.15414428710928	301.5682983398436	1404.545043945312	381.1913757324219	274.8509216308592	1258.528198242188	481.8783264160157	297.0565185546873	1196.824951171875	492.7846374511719	246.4710083007811	1202.093017578125	502.1519165039063	278.9781494140623	984.1007080078125	544.1339111328125	333.8643493652342	937.0333251953125	577.8128662109376	294.635772705078	923.002685546875	550.7085571289062	336.5606689453123	845.970947265625	571.7201538085939	379.9037475585936	830.439208984375	503.8051147460938	363.2397460937499	630.5429077148438	420.8710937500001	331.0375671386718	683.6915893554688	423.4577636718751	
